<svg width="182" height="137" viewBox="0 0 182 137" fill="none" xmlns="http://www.w3.org/2000/svg">
<path d="M117.163 10.9188C131.612 25.4773 131.612 49.0812 117.163 63.6396L114.262 66.5627L104.293 56.5192C110.321 52.2834 114.265 45.2455 114.265 37.2795C114.265 24.3335 103.849 13.8387 91 13.8387C78.151 13.8387 67.7348 24.3335 67.7348 37.2795C67.7348 44.5948 72 51 76.2721 55.4262L100.793 80.1326L91 90L64.837 63.6396C50.3876 49.0812 50.3877 25.4773 64.8371 10.9188C79.2864 -3.63961 102.714 -3.63961 117.163 10.9188Z" fill="#EDEA48"/>
<path d="M167.264 115.665C168.541 114.083 170.6 113.292 173.44 113.292C174.717 113.292 175.889 113.46 176.958 113.798C178.052 114.109 179.016 114.485 179.85 114.926L181.609 110.062C181.401 109.933 181.049 109.751 180.554 109.517C180.085 109.284 179.472 109.064 178.717 108.856C177.987 108.623 177.101 108.428 176.059 108.272C175.042 108.091 173.896 108 172.619 108C170.743 108 168.971 108.311 167.303 108.934C165.661 109.556 164.228 110.477 163.003 111.696C161.779 112.89 160.815 114.355 160.111 116.093C159.407 117.831 159.056 119.829 159.056 122.085C159.056 124.316 159.368 126.301 159.994 128.039C160.645 129.777 161.557 131.242 162.73 132.436C163.903 133.629 165.31 134.537 166.951 135.159C168.619 135.782 170.469 136.093 172.502 136.093C174.873 136.093 176.867 135.924 178.482 135.587C180.098 135.276 181.27 134.978 182 134.692V121.346H175.902V130.723C175.538 130.801 175.108 130.853 174.612 130.879C174.143 130.905 173.57 130.918 172.893 130.918C171.642 130.918 170.547 130.711 169.609 130.295C168.671 129.854 167.889 129.245 167.264 128.467C166.639 127.688 166.17 126.768 165.857 125.704C165.544 124.615 165.388 123.408 165.388 122.085C165.388 119.362 166.013 117.222 167.264 115.665Z" fill="white"/>
<path fill-rule="evenodd" clip-rule="evenodd" d="M8.1302 108.311C12.1692 108.311 15.2702 109.025 17.433 110.451C19.5959 111.852 20.6773 114.161 20.6773 117.377C20.6773 120.62 19.5828 122.967 17.3939 124.42C15.205 125.847 12.078 126.56 8.01294 126.56H6.09765V132.552C6.09765 134.228 4.73265 135.587 3.04883 135.587C1.36501 135.587 0 134.228 0 132.552V109.012C1.32898 108.752 2.73613 108.571 4.22145 108.467C5.70678 108.363 7.0097 108.311 8.1302 108.311ZM8.52108 113.486C8.07809 113.486 7.6351 113.499 7.1921 113.525C6.77517 113.551 6.41035 113.577 6.09765 113.603V121.385H8.01294C10.1237 121.385 11.7132 121.1 12.7816 120.529C13.85 119.958 14.3842 118.895 14.3842 117.338C14.3842 116.586 14.2409 115.964 13.9542 115.471C13.6937 114.978 13.3028 114.589 12.7816 114.303C12.2865 113.992 11.6741 113.785 10.9445 113.681C10.2149 113.551 9.40706 113.486 8.52108 113.486Z" fill="white"/>
<path d="M27.7608 108.623H33.8584V132.552C33.8584 134.228 32.4934 135.587 30.8096 135.587C29.1258 135.587 27.7608 134.228 27.7608 132.552V108.623Z" fill="white"/>
<path d="M59.9714 133.955C60.5583 134.959 61.6319 135.587 62.7989 135.587C64.5836 135.587 66.0303 134.147 66.0303 132.37V108.623H59.9718V124.537C59.0336 123.136 58.0304 121.683 56.962 120.179C55.8936 118.648 54.8122 117.183 53.7178 115.782C52.6494 114.355 51.594 113.019 50.5517 111.774C49.5093 110.529 48.5582 109.479 47.6983 108.623H42.7342V132.591C42.7342 134.246 44.0817 135.587 45.7439 135.587C47.4061 135.587 48.7536 134.246 48.7536 132.591V117.922C51.0468 120.594 53.2096 123.434 55.2422 126.443C56.9157 128.921 58.4921 131.425 59.9714 133.955Z" fill="white"/>
<path d="M94.9494 135.587C93.7824 135.587 92.7088 134.959 92.1219 133.955C90.6426 131.425 89.0662 128.921 87.3927 126.443C85.3601 123.434 83.1973 120.594 80.9041 117.922V132.591C80.9041 134.246 79.5566 135.587 77.8944 135.587C76.2322 135.587 74.8847 134.246 74.8847 132.591V108.623H79.8488C80.7087 109.479 81.6598 110.529 82.7022 111.774C83.7445 113.019 84.7999 114.355 85.8682 115.782C86.9627 117.183 88.0441 118.648 89.1125 120.179C90.1809 121.683 91.1841 123.136 92.1222 124.537V108.623H98.1808V132.37C98.1808 134.147 96.734 135.587 94.9494 135.587Z" fill="white"/>
<path d="M127.126 113.798V108.623H104.69V113.798H112.859V132.552C112.859 134.228 114.224 135.587 115.908 135.587C117.592 135.587 118.957 134.228 118.957 132.552V113.798H127.126Z" fill="white"/>
<path fill-rule="evenodd" clip-rule="evenodd" d="M150.831 135.587C149.494 135.587 148.321 134.715 147.877 133.46C147.788 133.211 147.697 132.96 147.604 132.708L146.588 129.751H136.034C135.695 130.736 135.343 131.722 134.979 132.708C134.885 132.98 134.794 133.25 134.704 133.518C134.295 134.743 133.155 135.587 131.858 135.587C129.828 135.587 128.405 133.594 129.087 131.691C129.607 130.242 130.111 128.855 130.601 127.533C131.513 125.069 132.399 122.747 133.259 120.568C134.145 118.389 135.005 116.327 135.838 114.381C136.698 112.41 137.584 110.49 138.496 108.623H144.32C145.206 110.49 146.079 112.41 146.939 114.381C147.799 116.327 148.659 118.389 149.519 120.568C150.405 122.747 151.304 125.069 152.216 127.533C152.692 128.819 153.182 130.165 153.687 131.571C154.39 133.532 152.923 135.587 150.831 135.587ZM141.272 114.731C141.141 115.121 140.946 115.652 140.685 116.327C140.425 117.001 140.125 117.779 139.786 118.661C139.448 119.543 139.07 120.516 138.653 121.58C138.262 122.643 137.858 123.759 137.441 124.926H145.141C144.724 123.759 144.32 122.643 143.93 121.58C143.539 120.516 143.161 119.543 142.796 118.661C142.457 117.779 142.158 117.001 141.897 116.327C141.636 115.652 141.428 115.121 141.272 114.731Z" fill="white"/>
</svg>
