<svg width="24" height="24" viewBox="0 0 24 24" fill="none" xmlns="http://www.w3.org/2000/svg">
<path fill-rule="evenodd" clip-rule="evenodd" d="M3.62791 3.39535H2.69767C2.31628 3.39535 2 3.07907 2 2.69767C2 2.31628 2.31628 2 2.69767 2H21.3023C21.6837 2 22 2.31628 22 2.69767C22 3.07907 21.6837 3.39535 21.3023 3.39535H20.3721V13.9535C20.3721 15.7209 19.4419 16.6512 17.6744 16.6512H12.6977V19.014L16.0279 20.6791C16.3814 20.8465 16.5209 21.2651 16.3442 21.6186C16.2233 21.8605 15.9721 22 15.7209 22C15.6186 22 15.507 21.9721 15.414 21.9256L12 20.2233L8.58606 21.9256C8.49304 21.9721 8.38141 22 8.27908 22C8.02792 22 7.77676 21.8605 7.65583 21.6186C7.47908 21.2651 7.61862 20.8465 7.97211 20.6791L11.3023 19.014V16.6512H6.32558C4.55814 16.6512 3.62791 15.7209 3.62791 13.9535V3.39535ZM13.7023 11.2651L16.6326 8.8186C16.9302 8.56744 16.9674 8.13023 16.7256 7.83256C16.4744 7.53488 16.0372 7.48837 15.7395 7.73953L13.014 10.0093L12.0372 8.3814C11.8605 8.08372 11.5721 7.87907 11.2372 7.82326C10.9116 7.76744 10.5674 7.86047 10.2977 8.08372L7.36744 10.5302C7.06977 10.7814 7.02326 11.2186 7.27442 11.5163C7.41395 11.6837 7.6186 11.7674 7.81395 11.7674C7.97209 11.7674 8.13023 11.7209 8.26047 11.6093L10.986 9.33954L11.9628 10.9674C12.1395 11.2651 12.4279 11.4698 12.7628 11.5256C13.0884 11.5814 13.4326 11.4884 13.7023 11.2651Z" fill="#74746E"/>
</svg>
