<svg width="24" height="24" viewBox="0 0 24 24" fill="none" xmlns="http://www.w3.org/2000/svg">
<path fill-rule="evenodd" clip-rule="evenodd" d="M10.9268 2H13.0732C14.8966 1.99997 16.3664 1.99995 17.5223 2.15537C18.7225 2.31672 19.733 2.66191 20.5355 3.46447C21.3381 4.26702 21.6833 5.27752 21.8446 6.47767C22 7.63363 22 9.1034 22 10.9269V13.0731C22 14.8966 22 16.3664 21.8446 17.5223C21.6833 18.7225 21.3381 19.733 20.5355 20.5355C19.733 21.3381 18.7225 21.6833 17.5223 21.8446C16.3664 22.0001 14.8966 22 13.0731 22H10.9269C9.1034 22 7.63363 22.0001 6.47767 21.8446C5.27752 21.6833 4.26702 21.3381 3.46447 20.5355C2.66191 19.733 2.31672 18.7225 2.15537 17.5223C1.99995 16.3664 1.99997 14.8966 2 13.0732V10.9268C1.99997 9.1034 1.99995 7.63362 2.15537 6.47767C2.31672 5.27752 2.66191 4.26702 3.46447 3.46447C4.26702 2.66191 5.27752 2.31672 6.47767 2.15537C7.63362 1.99995 9.1034 1.99997 10.9268 2ZM18.9997 13.5854L18.9794 13.5651C18.5898 13.1754 18.2537 12.8393 17.9536 12.5864C17.6367 12.3193 17.2917 12.0845 16.8665 11.9562C16.3014 11.7857 15.6986 11.7857 15.1335 11.9562C14.7083 12.0845 14.3633 12.3193 14.0464 12.5864C13.7463 12.8393 13.4102 13.1754 13.0206 13.5651L12.9921 13.5936C12.6852 13.9004 12.5046 14.0795 12.3645 14.1954L12.3443 14.2118L12.3317 14.1891C12.2447 14.0295 12.1435 13.7961 11.9726 13.3972L11.897 13.221C11.5411 12.3904 11.2422 11.693 10.9464 11.1673C10.6416 10.6257 10.2618 10.1178 9.66982 9.82106C9.17604 9.57352 8.6235 9.46711 8.07311 9.51356C7.41323 9.56924 6.87197 9.89977 6.38784 10.2894C5.98249 10.6157 5.52754 11.0598 5 11.5859V12.9999C5 13.5166 5.0003 13.9848 5.00309 14.411L6.117 13.2971C6.80616 12.6079 7.26639 12.1497 7.64186 11.8475C8.01276 11.5489 8.17233 11.5123 8.24128 11.5065C8.42475 11.491 8.60893 11.5265 8.77352 11.609C8.83539 11.64 8.96994 11.7333 9.20344 12.1482C9.43981 12.5682 9.69694 13.1646 10.0809 14.0605L10.1506 14.2232C10.2995 14.5707 10.4378 14.8936 10.5759 15.1468C10.7206 15.412 10.9308 15.7299 11.2847 15.9489C11.702 16.2072 12.1997 16.3031 12.6831 16.2182C13.093 16.1463 13.4062 15.9292 13.6391 15.7367C13.8613 15.5529 14.1096 15.3045 14.377 15.0371L14.4063 15.0078C14.8325 14.5816 15.1083 14.307 15.3353 14.1157C15.5526 13.9325 15.6552 13.8878 15.7112 13.8709C15.8995 13.8141 16.1005 13.8141 16.2888 13.8709C16.3448 13.8878 16.4474 13.9325 16.6648 14.1157C16.8917 14.307 17.1675 14.5816 17.5937 15.0078L18.9441 16.3582C18.9902 15.6404 18.9983 14.7479 18.9997 13.5854ZM16.5 9C17.3284 9 18 8.32843 18 7.5C18 6.67157 17.3284 6 16.5 6C15.6716 6 15 6.67157 15 7.5C15 8.32843 15.6716 9 16.5 9Z" fill="#74746E"/>
</svg>
