<svg width="24" height="24" viewBox="0 0 24 24" fill="none" xmlns="http://www.w3.org/2000/svg">
<path fill-rule="evenodd" clip-rule="evenodd" d="M12.4469 22.8928C14.1312 22.0288 20 16.6104 20 10.9234C20 6.54741 16.4183 3 12 3C7.58172 3 4 6.54741 4 10.9234C4 16.6104 9.86882 22.0288 11.5531 22.8928C11.8375 23.0386 12.1625 23.0386 12.4469 22.8928ZM12 14.3191C13.8935 14.3191 15.4285 12.7988 15.4285 10.9233C15.4285 9.04794 13.8935 7.52762 12 7.52762C10.1064 7.52762 8.57138 9.04794 8.57138 10.9233C8.57138 12.7988 10.1064 14.3191 12 14.3191Z" fill="#74746E"/>
</svg>
