<svg width="18" height="18" viewBox="0 0 18 18" fill="none" xmlns="http://www.w3.org/2000/svg">
<path fill-rule="evenodd" clip-rule="evenodd" d="M3.6 0H14.4C16.389 0 18 1.53429 18 3.42857V11.1429C18 13.0371 16.389 14.5714 14.4 14.5714H3.6C1.611 14.5714 0 13.0371 0 11.1429V3.42857C0 1.53429 1.611 0 3.6 0ZM8.1 5.41714C8.1 4.94571 7.695 4.56 7.191 4.56C6.696 4.56 6.3 4.94571 6.3 5.41714C6.3 5.88857 6.705 6.27429 7.2 6.27429C7.695 6.27429 8.1 5.88857 8.1 5.41714ZM5.265 5.41714C5.265 4.94571 4.86 4.56 4.356 4.56C3.852 4.56 3.465 4.94571 3.465 5.41714C3.465 5.88857 3.87 6.27429 4.365 6.27429C4.86 6.27429 5.265 5.88857 5.265 5.41714ZM4.284 11.0229H13.734C14.112 11.0229 14.418 10.7314 14.418 10.38C14.418 10.0286 14.112 9.73714 13.743 9.73714H4.266C3.897 9.73714 3.6 10.0286 3.6 10.38C3.6 10.7314 3.906 11.0229 4.284 11.0229ZM10.422 6.06H13.734C14.112 6.06 14.409 5.76857 14.409 5.41714C14.409 5.06571 14.103 4.77429 13.734 4.77429H10.422C10.053 4.77429 9.747 5.06571 9.747 5.41714C9.747 5.76857 10.053 6.06 10.422 6.06ZM4.30432 18H13.6956C14.0807 18 14.4 17.4171 14.4 16.7143C14.4 16.0114 14.0807 15.4286 13.6956 15.4286H4.30432C3.91928 15.4286 3.59998 16.0114 3.59998 16.7143C3.59998 17.4171 3.91928 18 4.30432 18Z" fill="#74746E"/>
</svg>
