<svg width="266" height="42" viewBox="0 0 266 42" fill="none" xmlns="http://www.w3.org/2000/svg">
<path d="M244.044 11.4032C245.903 9.09921 248.9 7.94724 253.036 7.94724C254.895 7.94724 256.603 8.19273 258.158 8.68374C259.752 9.13698 261.156 9.68465 262.37 10.3267L264.931 3.2449C264.627 3.05604 264.115 2.79165 263.394 2.45172C262.711 2.11179 261.82 1.79075 260.719 1.4886C259.657 1.14867 258.367 0.865395 256.849 0.638771C255.369 0.374383 253.7 0.242188 251.841 0.242188C249.109 0.242188 246.529 0.695421 244.101 1.6019C241.71 2.50837 239.623 3.84922 237.84 5.62439C236.057 7.36181 234.653 9.49581 233.629 12.0264C232.604 14.557 232.092 17.4652 232.092 20.7512C232.092 23.9994 232.547 26.8888 233.458 29.4194C234.406 31.95 235.734 34.084 237.442 35.8214C239.149 37.5588 241.198 38.8807 243.588 39.7872C246.017 40.6937 248.711 41.1469 251.67 41.1469C255.123 41.1469 258.025 40.9014 260.378 40.4104C262.73 39.9572 264.438 39.5228 265.5 39.1074V19.6748H256.622V33.3286C256.09 33.4419 255.464 33.5174 254.743 33.5552C254.06 33.593 253.226 33.6118 252.239 33.6118C250.418 33.6118 248.824 33.3097 247.459 32.7054C246.093 32.0633 244.954 31.1757 244.044 30.0426C243.133 28.9095 242.45 27.5687 241.995 26.0201C241.54 24.4338 241.312 22.6775 241.312 20.7512C241.312 16.7854 242.223 13.6694 244.044 11.4032Z" fill="#E3E3D8"/>
<path fill-rule="evenodd" clip-rule="evenodd" d="M12.3379 0.695423C18.219 0.695423 22.7341 1.7341 25.8833 3.81144C29.0325 5.85101 30.607 9.21253 30.607 13.896C30.607 18.6172 29.0135 22.0354 25.8263 24.1505C22.6392 26.2279 18.0862 27.2665 12.1672 27.2665H9.37845V35.9914C9.37845 38.4319 7.39094 40.4104 4.93923 40.4104C2.48751 40.4104 0.5 38.4319 0.5 35.9913V1.71521C2.43505 1.33751 4.48392 1.07312 6.64662 0.92204C8.80932 0.770957 10.7064 0.695423 12.3379 0.695423ZM12.9071 8.23051C12.262 8.23051 11.617 8.24939 10.972 8.28717C10.3649 8.32494 9.83375 8.36271 9.37845 8.40048V19.7314H12.1672C15.2405 19.7314 17.555 19.316 19.1106 18.485C20.6662 17.6541 21.444 16.1055 21.444 13.8393C21.444 12.744 21.2354 11.8375 20.818 11.1199C20.4386 10.4023 19.8694 9.83573 19.1106 9.42026C18.3897 8.96703 17.4981 8.66486 16.4357 8.51378C15.3733 8.32493 14.1971 8.23051 12.9071 8.23051Z" fill="#E3E3D8"/>
<path d="M40.9209 1.14867H49.7994V35.9913C49.7994 38.4319 47.8119 40.4104 45.3601 40.4104C42.9084 40.4104 40.9209 38.4319 40.9209 35.9913V1.14867Z" fill="#E3E3D8"/>
<path d="M87.8209 38.0343C88.6756 39.4962 90.2388 40.4104 91.9379 40.4104C94.5365 40.4104 96.643 38.3134 96.643 35.7267V1.14867H87.8215V24.3205C86.4556 22.2809 84.9948 20.1658 83.4392 17.9751C81.8836 15.7467 80.309 13.6127 78.7154 11.5731C77.1598 9.4958 75.6231 7.55066 74.1054 5.73771C72.5878 3.92474 71.2029 2.39507 69.9508 1.14867H62.7228V36.048C62.7228 38.4573 64.6848 40.4104 67.1051 40.4104C69.5254 40.4104 71.4874 38.4573 71.4874 36.048V14.6891C74.8263 18.5794 77.9755 22.7153 80.935 27.0966C83.3718 30.704 85.6671 34.35 87.8209 38.0343Z" fill="#E3E3D8"/>
<path d="M138.75 40.4104C137.051 40.4104 135.488 39.4962 134.633 38.0343C132.48 34.35 130.184 30.704 127.748 27.0966C124.788 22.7153 121.639 18.5794 118.3 14.6891V36.048C118.3 38.4573 116.338 40.4104 113.918 40.4104C111.497 40.4104 109.535 38.4573 109.535 36.048V1.14867H116.763C118.015 2.39507 119.4 3.92474 120.918 5.73771C122.436 7.55066 123.972 9.4958 125.528 11.5731C127.121 13.6127 128.696 15.7467 130.252 17.9751C131.807 20.1658 133.268 22.2809 134.634 24.3205V1.14867H143.456V35.7267C143.456 38.3134 141.349 40.4104 138.75 40.4104Z" fill="#E3E3D8"/>
<path d="M185.601 8.68374V1.14867H152.933V8.68374H164.828V35.9913C164.828 38.4319 166.815 40.4104 169.267 40.4104C171.719 40.4104 173.706 38.4319 173.706 35.9913V8.68374H185.601Z" fill="#E3E3D8"/>
<path fill-rule="evenodd" clip-rule="evenodd" d="M220.116 40.4104C218.17 40.4104 216.463 39.1407 215.815 37.3136C215.686 36.9509 215.554 36.5857 215.418 36.218L213.938 31.9122H198.571C198.078 33.3474 197.566 34.7827 197.035 36.218C196.899 36.6138 196.765 37.0068 196.635 37.3969C196.04 39.1805 194.379 40.4104 192.491 40.4104C189.536 40.4104 187.464 37.508 188.457 34.7375C189.213 32.6268 189.948 30.6086 190.66 28.6829C191.988 25.0947 193.278 21.7143 194.531 18.5417C195.821 15.369 197.073 12.3663 198.287 9.53356C199.539 6.66306 200.829 3.86809 202.157 1.14867H210.637C211.927 3.86809 213.198 6.66306 214.45 9.53356C215.702 12.3663 216.954 15.369 218.206 18.5417C219.496 21.7143 220.805 25.0947 222.133 28.6829C222.826 30.5553 223.54 32.5153 224.274 34.5626C225.299 37.4184 223.163 40.4104 220.116 40.4104ZM206.198 10.0435C206.008 10.61 205.723 11.3843 205.344 12.3663C204.965 13.3483 204.528 14.4814 204.035 15.7656C203.542 17.0498 202.992 18.4661 202.385 20.0147C201.815 21.5633 201.227 23.1874 200.62 24.887H211.832C211.225 23.1874 210.637 21.5633 210.068 20.0147C209.499 18.4661 208.948 17.0498 208.417 15.7656C207.924 14.4814 207.488 13.3483 207.108 12.3663C206.729 11.3843 206.425 10.61 206.198 10.0435Z" fill="#E3E3D8"/>
</svg>
